<?xml version="1.0" encoding="utf-8"?>
<!-- Generator: Adobe Illustrator 23.0.4, SVG Export Plug-In . SVG Version: 6.00 Build 0)  -->
<svg version="1.1" id="レイヤー_1" xmlns="http://www.w3.org/2000/svg" xmlns:xlink="http://www.w3.org/1999/xlink" x="0px"
	 y="0px" viewBox="0 0 45 45" style="enable-background:new 0 0 45 45;" xml:space="preserve">
<style type="text/css">
	.st0{fill:#29C4A0;}
	.st1{fill:#FFFFFF;}
</style>
<g id="グループ化_8399" transform="translate(-162 -996)">
	<circle id="楕円形_1036" class="st0" cx="184.5" cy="1018.5" r="22.5"/>
	<path id="パス_6532" class="st1" d="M192,1013.5c-0.6,0.3-1.2,0.4-1.9,0.5c0.7-0.4,1.2-1,1.4-1.8c-0.6,0.4-1.4,0.7-2.1,0.8
		c-0.6-0.6-1.5-1-2.4-1c-1.8,0.1-3.2,1.5-3.2,3.3c0,0.2,0,0.5,0.1,0.7c-2.7-0.1-5.1-1.3-6.8-3.4c-0.3,0.5-0.4,1.1-0.4,1.7
		c0,1.1,0.6,2.1,1.5,2.7c-0.5,0-1-0.2-1.5-0.4l0,0c0,1.6,1.1,2.9,2.6,3.2c-0.3,0.1-0.6,0.1-0.9,0.1c-0.2,0-0.4,0-0.6-0.1
		c0.4,1.4,1.7,2.3,3.1,2.3c-1.2,0.9-2.6,1.4-4.1,1.4H176c1.5,0.9,3.2,1.5,5,1.5c5.1,0,9.3-4.1,9.3-9.2c0,0,0-0.1,0-0.1v-0.4
		C191,1014.8,191.6,1014.2,192,1013.5z"/>
</g>
</svg>
