<?xml version="1.0" encoding="utf-8"?>
<!-- Generator: Adobe Illustrator 23.0.4, SVG Export Plug-In . SVG Version: 6.00 Build 0)  -->
<svg version="1.1" id="レイヤー_1" xmlns="http://www.w3.org/2000/svg" xmlns:xlink="http://www.w3.org/1999/xlink" x="0px"
	 y="0px" viewBox="0 0 122 53.7" style="enable-background:new 0 0 122 53.7;" xml:space="preserve">
<style type="text/css">
	.st0{fill:#FFFFFF;}
</style>
<g id="グループ化_7974" transform="translate(-48.497 -27.099)">
	<g id="グループ化_7267" transform="translate(81.397 27.602)">
		<path id="パス_243" class="st0" d="M88.6,5.3c0.1-0.4-0.2-0.9-0.7-1c0,0-0.1,0-0.1,0h-8.4c-0.4,0-0.7,0.3-0.8,0.7l-2.5,14.1
			c0,0.2-0.2,0.3-0.4,0.3c0,0-0.1,0-0.1,0c-1.7-0.9-3.6-1.4-5.5-1.3c-2.1,0-4.2,0.3-6.1,1.1l-8.3,14.4l-0.6,3.1
			c-0.2,1-0.3,2.1-0.3,3.1c0,3.3,3.2,8.3,9.7,8.3c3.3,0,5.9-0.8,7.8-3.1c0.2-0.3,0.6-0.3,0.9-0.1c0.1,0.1,0.1,0.2,0.2,0.3
			c0.9,2.2,3.3,2.9,7,2.9c1.8,0,3.5-0.5,5-1.4c0.2-0.1,0.3-0.3,0.4-0.5l1-5.7c0.1-0.4-0.2-0.9-0.6-0.9c-0.1,0-0.2,0-0.3,0
			c-0.5,0.1-1,0.2-1.4,0.1c-0.7,0.1-1.4-0.4-1.6-1.1c0-0.1,0-0.3,0-0.4c0-0.2,0-0.5,0.1-0.7L88.6,5.3z M74.3,29.1
			c0,0.4-0.2,1.3-0.2,1.4c0,0-0.3,1.7-0.7,3.8c-0.8,4.4-2.8,5.2-4.2,5.2c-1.1,0.1-2.2-0.2-3-0.9c-0.5-0.5-0.8-1.1-0.9-1.9
			c0-0.5,0-1,0.1-1.5l0.8-4.4c0.5-2.9,2.3-4.4,5.3-4.4C73,26.4,74.5,26.9,74.3,29.1L74.3,29.1z"/>
		<path id="パス_244" class="st0" d="M41.1,52.7c-0.5,0-0.9-0.4-0.9-0.9c0-0.2,0-0.3,0.1-0.4l30.5-51C71.1,0,71.6-0.1,72,0.1
			c0.4,0.2,0.5,0.7,0.3,1.2l-30.5,51C41.7,52.6,41.4,52.7,41.1,52.7z"/>
		
			<ellipse id="楕円形_6" transform="matrix(0.7254 -0.6883 0.6883 0.7254 -4.942 10.1332)" class="st0" cx="10.2" cy="11.3" rx="5" ry="4.5"/>
		<path id="パス_245" class="st0" d="M45.6,38.7c-0.1-0.2-0.1-0.4-0.1-0.7c0-0.2,0-0.4,0.1-0.7l1.6-9.1c0.2-1.1,0.3-2.3,0.3-3.5
			c0-3.4-2.1-6.8-8.1-6.8c-2.5,0-4.8,0.8-6.7,2.4c-0.3,0.3-0.9,0.3-1.2-0.1c-0.2-0.2-0.2-0.4-0.2-0.6l0,0c0.1-0.4-0.3-0.9-0.7-0.9
			c0,0-0.1,0-0.1,0h-7.7c-0.4,0-0.7,0.3-0.8,0.7l-4.7,26.8c-0.1,0.4,0.2,0.9,0.7,0.9c0,0,0.1,0,0.1,0h8.4c0.4,0,0.7-0.3,0.8-0.7
			l2.5-14.2c0.4-2.3,2.4-4,4.8-3.9c1.1-0.1,2.1,0.7,2.2,1.8c0,0.2,0,0.3,0,0.5c0,0.5-0.2,1.3-0.3,2l-1.1,6.1
			c-0.2,0.8-0.2,1.7-0.2,2.5c0,3.4,1.6,5.6,4.7,6.4c0.4,0.1,0.7-0.1,0.9-0.4L45.6,38.7z"/>
		<path id="パス_248" class="st0" d="M14.4,40.2c0.1-0.4-0.2-0.7-0.5-0.8c-0.1,0-0.2,0-0.3,0c-0.4,0.1-0.9,0.2-1.4,0.2
			c-1.2,0-1.8-0.5-1.8-1.6c0-0.2,0-0.4,0.1-0.7l3.1-17.6c0.1-0.4-0.2-0.9-0.7-1c0,0-0.1,0-0.1,0H4.5c-0.4,0-0.7,0.3-0.8,0.7
			L0.2,38.7C0.1,39.8,0,40.9,0,42c0,1.2,0.4,2.5,1.1,3.5C2.1,47.2,4.4,48,8,48c1.8,0,3.5-0.5,5-1.4c0.2-0.1,0.3-0.3,0.3-0.5
			L14.4,40.2z"/>
	</g>
	<g id="グループ化_7266" transform="translate(49 30.234)">
		<path id="パス_4818" class="st0" d="M14.3,18.5h12.9c0.5,0,0.9,0.4,0.9,0.9c0,0.1,0,0.1,0,0.2l-1.3,7.8
			c-0.1,0.4-0.4,0.7-0.9,0.7H13.4c-0.5,0-0.9-0.4-0.9-0.9c0-0.1,0-0.1,0-0.2l1.4-8.2C13.9,18.6,14.1,18.5,14.3,18.5z"/>
		<path id="パス_4819" class="st0" d="M5.6,11.3C6.8,4.6,8.6,0,15.8,0H34c0.5,0,0.9,0.4,0.9,0.9c0,0.1,0,0.1,0,0.2l-1.4,7.8
			c-0.1,0.4-0.4,0.7-0.9,0.7c-2,0-9.3-0.1-12.4-0.1c-2.6,0-3.7,2.3-4.3,5.7c-0.3,1.8-4.1,23.9-4.8,28.3c-0.1,0.4-0.4,0.7-0.9,0.7
			H0.9c-0.5,0-0.9-0.4-0.9-0.9c0-0.1,0-0.1,0-0.2L5.6,11.3z"/>
	</g>
</g>
</svg>
