<svg xmlns="http://www.w3.org/2000/svg" width="122.006" height="53.743" viewBox="0 0 122.006 53.743">
  <g id="グループ化_7974" data-name="グループ化 7974" transform="translate(-48.497 -27.099)">
    <g id="グループ化_7267" data-name="グループ化 7267" transform="translate(81.397 27.602)">
      <path id="パス_243" data-name="パス 243" d="M1136.66,1734.009a.82.82,0,0,0-.808-.963h-8.424a.82.82,0,0,0-.808.68l-2.458,14.072a.326.326,0,0,1-.493.223,10.256,10.256,0,0,0-5.5-1.32,16.054,16.054,0,0,0-6.147,1.085l-8.3,14.374-.553,3.083a18.468,18.468,0,0,0-.3,3.13c0,3.338,3.228,8.325,9.684,8.325,3.34,0,5.9-.755,7.816-3.111a.658.658,0,0,1,1.114.168c.894,2.236,3.256,2.943,6.954,2.943a9.7,9.7,0,0,0,5.047-1.381.79.79,0,0,0,.37-.543l1.007-5.677a.8.8,0,0,0-.943-.93,6.6,6.6,0,0,1-1.436.147,1.371,1.371,0,0,1-1.566-1.536,4.3,4.3,0,0,1,.059-.708Zm-14.326,23.8c-.047.394-.179,1.3-.191,1.374,0,0-.341,1.7-.739,3.828-.832,4.436-2.843,5.184-4.208,5.184a4.028,4.028,0,0,1-2.982-.916,2.689,2.689,0,0,1-.885-1.859,7.164,7.164,0,0,1,.118-1.476l.768-4.429q.767-4.369,5.315-4.37C1121.086,1755.143,1122.593,1755.639,1122.334,1757.807Z" transform="translate(-1048.07 -1728.712)" fill="#3ad6b2" stroke="rgba(0,0,0,0)" stroke-miterlimit="10" stroke-width="1"/>
      <path id="パス_244" data-name="パス 244" d="M1083.439,1779.74a.855.855,0,0,1-.74-1.283l30.471-51.027a.856.856,0,0,1,1.483.855l-30.471,51.027A.855.855,0,0,1,1083.439,1779.74Z" transform="translate(-1042.327 -1727)" fill="#3ad6b2" stroke="rgba(0,0,0,0)" stroke-miterlimit="10" stroke-width="1"/>
      <ellipse id="楕円形_6" data-name="楕円形 6" cx="5.038" cy="4.536" rx="5.038" ry="4.536" transform="translate(3.453 11.438) rotate(-43.496)" fill="#3ad6b2" stroke="rgba(0,0,0,0)" stroke-miterlimit="10" stroke-width="1"/>
      <path id="パス_245" data-name="パス 245" d="M1078.89,1772.766a2.015,2.015,0,0,1-.1-.652,3.952,3.952,0,0,1,.059-.65l1.594-9.093a19.02,19.02,0,0,0,.291-3.468c0-3.443-2.069-6.791-8.069-6.791a10.44,10.44,0,0,0-6.748,2.377.815.815,0,0,1-1.348-.71h0a.82.82,0,0,0-.814-.916h-7.721a.82.82,0,0,0-.807.677L1050.5,1780.3a.82.82,0,0,0,.807.962h8.376a.82.82,0,0,0,.806-.676l2.545-14.239a4.622,4.622,0,0,1,4.75-3.875,2.022,2.022,0,0,1,2.2,2.295c-.026.511-.167,1.285-.286,1.994l-1.126,6.057a14.865,14.865,0,0,0-.236,2.539q0,5.156,4.712,6.362a.811.811,0,0,0,.893-.391Z" transform="translate(-1033.242 -1734.108)" fill="#3ad6b2" stroke="rgba(0,0,0,0)" stroke-miterlimit="10" stroke-width="1"/>
      <path id="パス_248" data-name="パス 248" d="M1040.82,1774.6a.66.66,0,0,0-.808-.76,5.333,5.333,0,0,1-1.354.167q-1.771,0-1.772-1.594a3.956,3.956,0,0,1,.06-.65l3.135-17.636a.821.821,0,0,0-.807-.964H1030.9a.82.82,0,0,0-.808.677l-3.422,19.281a20.122,20.122,0,0,0-.236,3.277,6.382,6.382,0,0,0,1.063,3.513q1.594,2.481,6.968,2.48a9.511,9.511,0,0,0,4.986-1.367.665.665,0,0,0,.308-.454Z" transform="translate(-1026.435 -1734.405)" fill="#3ad6b2" stroke="rgba(0,0,0,0)" stroke-miterlimit="10" stroke-width="1"/>
    </g>
    <g id="グループ化_7266" data-name="グループ化 7266" transform="translate(49 30.234)">
      <path id="パス_4818" data-name="パス 4818" d="M1078.372,720.68h12.884a.891.891,0,0,1,.878,1.043l-1.35,7.774a.891.891,0,0,1-.877.738h-12.449a.89.89,0,0,1-.878-1.042l1.4-8.187A.394.394,0,0,1,1078.372,720.68Z" transform="translate(-1064.098 -702.208)" fill="#3ad6b2" stroke="rgba(0,0,0,0)" stroke-miterlimit="10" stroke-width="1"/>
      <path id="パス_4819" data-name="パス 4819" d="M1053.819,689.945c1.185-6.718,2.976-11.319,10.146-11.319h18.257a.891.891,0,0,1,.877,1.048l-1.4,7.8a.886.886,0,0,1-.883.733c-1.967-.025-9.331-.089-12.377-.089-2.615,0-3.7,2.348-4.335,5.744-.341,1.813-4.11,23.933-4.846,28.283a.885.885,0,0,1-.877.737h-9.31a.891.891,0,0,1-.877-1.045Z" transform="translate(-1048.181 -678.626)" fill="#3ad6b2" stroke="rgba(0,0,0,0)" stroke-miterlimit="10" stroke-width="1"/>
    </g>
  </g>
</svg>
